<?xml version="1.0" encoding="UTF-8"?>
<svg width="48px" height="85px" viewBox="0 0 48 85" version="1.1" xmlns="http://www.w3.org/2000/svg" xmlns:xlink="http://www.w3.org/1999/xlink">
    <!-- Generator: Sketch 47.1 (45422) - http://www.bohemiancoding.com/sketch -->
    <title>icon_temperature_large</title>
    <desc>Created with Sketch.</desc>
    <defs></defs>
    <g id="Page-1" stroke="none" stroke-width="1" fill="none" fill-rule="evenodd">
        <g id="-TW-Content-Page-1" transform="translate(-193.000000, -1044.000000)" fill="#6CD4FF">
            <path d="M223,1107.75 C223,1110.27977 222.125009,1112.43005 220.375,1114.20089 C218.624991,1115.97174 216.500012,1116.85714 214,1116.85714 C211.499988,1116.85714 209.375009,1115.97174 207.625,1114.20089 C205.874991,1112.43005 205,1110.27977 205,1107.75 C205,1105.85267 205.54687,1104.11348 206.640625,1102.53237 C207.73438,1100.95126 209.187491,1099.82869 211,1099.16462 L211,1068.28571 L217,1068.28571 L217,1099.16462 C218.812509,1099.82869 220.26562,1100.95126 221.359375,1102.53237 C222.45313,1104.11348 223,1105.85267 223,1107.75 Z M229,1107.75 C229,1105.31509 228.468755,1103.03833 227.40625,1100.91964 C226.343745,1098.80096 224.875009,1097.03014 223,1095.60714 L223,1059.17857 C223,1056.6488 222.125009,1054.49852 220.375,1052.72768 C218.624991,1050.95684 216.500012,1050.07143 214,1050.07143 C211.499988,1050.07143 209.375009,1050.95684 207.625,1052.72768 C205.874991,1054.49852 205,1056.6488 205,1059.17857 L205,1095.60714 C203.124991,1097.03014 201.656255,1098.80096 200.59375,1100.91964 C199.531245,1103.03833 199,1105.31509 199,1107.75 C199,1111.95575 200.460923,1115.53691 203.382812,1118.49358 C206.304702,1121.45026 209.843729,1122.92857 214,1122.92857 C218.156271,1122.92857 221.695298,1121.45026 224.617187,1118.49358 C227.539077,1115.53691 229,1111.95575 229,1107.75 Z M235,1107.75 C235,1113.6001 232.945333,1118.60424 228.835938,1122.76256 C224.726542,1126.92087 219.781279,1129 214,1129 C208.218721,1129 203.273458,1126.92087 199.164062,1122.76256 C195.054667,1118.60424 193,1113.6001 193,1107.75 C193,1101.99476 194.99998,1097.04597 199,1092.90346 L199,1059.17857 C199,1054.97282 200.460923,1051.39166 203.382812,1048.43499 C206.304702,1045.47831 209.843729,1044 214,1044 C218.156271,1044 221.695298,1045.47831 224.617188,1048.43499 C227.539077,1051.39166 229,1054.97282 229,1059.17857 L229,1092.90346 C233.00002,1097.04597 235,1101.99476 235,1107.75 Z M241,1080.42857 L241,1086.5 L232,1086.5 L232,1080.42857 L241,1080.42857 Z M241,1068.28571 L241,1074.35714 L232,1074.35714 L232,1068.28571 L241,1068.28571 Z M241,1056.14286 L241,1062.21429 L232,1062.21429 L232,1056.14286 L241,1056.14286 Z" id="icon_temperature_large"></path>
        </g>
    </g>
</svg>