<?xml version="1.0" encoding="UTF-8"?>
<svg width="18px" height="14px" viewBox="0 0 18 14" version="1.1" xmlns="http://www.w3.org/2000/svg" xmlns:xlink="http://www.w3.org/1999/xlink">
    <!-- Generator: Sketch 47.1 (45422) - http://www.bohemiancoding.com/sketch -->
    <title>icon_twitter</title>
    <desc>Created with Sketch.</desc>
    <defs></defs>
    <g id="Page-1" stroke="none" stroke-width="1" fill="none" fill-rule="evenodd">
        <g id="-TW-Content-Page-1" transform="translate(-207.000000, -930.000000)" fill="#6CD4FF">
            <g id="TWT" transform="translate(207.000000, 930.000000)">
                <path d="M17.2423836,1.99419215 C16.6250637,2.26027832 15.9545266,2.45186036 15.2627025,2.52636448 C15.9758135,2.10062662 16.5186292,1.43008947 16.774072,0.631830974 C16.1141783,1.0256385 15.369137,1.31301156 14.5921654,1.46201981 C13.964202,0.791482674 13.0701525,0.376388254 12.080312,0.376388254 C10.175135,0.376388254 8.6424787,1.91968802 8.6424787,3.81422153 C8.6424787,4.0803077 8.67440904,4.34639386 8.72762627,4.60183658 C5.87518257,4.45282833 3.33139881,3.09046716 1.63909079,1.00435161 C1.34107428,1.51523705 1.17077913,2.10062662 1.17077913,2.73923342 C1.17077913,3.93129944 1.7774556,4.98500066 2.70343546,5.60232057 C2.13933278,5.58103368 1.60716045,5.42138198 1.14949224,5.16593926 L1.14949224,5.20851305 C1.14949224,6.87953417 2.33091482,8.26318224 3.90614493,8.58248564 C3.61877187,8.65698977 3.31011192,8.69956355 3.00145196,8.69956355 C2.77793958,8.69956355 2.56507065,8.67827666 2.35220172,8.64634632 C2.78858303,10.0087075 4.05515318,10.998548 5.56652261,11.0304784 C4.38510003,11.9564582 2.90566094,12.499274 1.29850049,12.499274 C1.01112743,12.499274 0.745041267,12.4886306 0.468311654,12.4567002 C1.99032453,13.4358973 3.79971046,14 5.74746121,14 C12.0696685,14 15.5287887,8.76342424 15.5287887,4.2186725 C15.5287887,4.06966425 15.5287887,3.920656 15.5181453,3.77164774 C16.1886824,3.2820492 16.774072,2.67537274 17.2423836,1.99419215 Z" id="icon_twitter"></path>
            </g>
        </g>
    </g>
</svg>