<?xml version="1.0" encoding="UTF-8"?>
<svg width="12px" height="12px" viewBox="0 0 12 12" version="1.1" xmlns="http://www.w3.org/2000/svg" xmlns:xlink="http://www.w3.org/1999/xlink">
    <!-- Generator: Sketch 47.1 (45422) - http://www.bohemiancoding.com/sketch -->
    <title>icon_rss_small</title>
    <desc>Created with Sketch.</desc>
    <defs></defs>
    <g id="Symbols" stroke="none" stroke-width="1" fill="none" fill-rule="evenodd">
        <g id="Footer-/-1200" transform="translate(-687.000000, -444.000000)" fill="#9B9B9B">
            <path d="M690.113968,454.443016 C690.113968,455.302601 689.416569,456 688.556984,456 C687.697399,456 687,455.302601 687,454.443016 C687,453.583431 687.697399,452.886032 688.556984,452.886032 C689.416569,452.886032 690.113968,453.583431 690.113968,454.443016 Z M694.265926,455.440459 C694.274036,455.586426 694.22538,455.724284 694.128068,455.829705 C694.030757,455.943235 693.892899,456 693.746932,456 L692.652177,456 C692.38457,456 692.165619,455.797268 692.141292,455.529661 C691.906122,453.056327 689.943673,451.093878 687.470339,450.858708 C687.202732,450.834381 687,450.61543 687,450.347823 L687,449.253068 C687,449.107101 687.056765,448.969243 687.170295,448.871932 C687.259497,448.782729 687.389246,448.734074 687.518995,448.734074 L687.559541,448.734074 C689.286821,448.871932 690.916788,449.626096 692.141292,450.858708 C693.373904,452.083212 694.128068,453.713179 694.265926,455.440459 Z M698.417884,455.456677 C698.425993,455.594535 698.377338,455.732393 698.271917,455.837814 C698.174605,455.943235 698.044857,456 697.898889,456 L696.739261,456 C696.463545,456 696.236484,455.789158 696.220266,455.513442 C695.952659,450.801943 692.198057,447.047341 687.486558,446.771625 C687.210842,446.755406 687,446.528346 687,446.260739 L687,445.101111 C687,444.955143 687.056765,444.825395 687.162186,444.728083 C687.259497,444.630772 687.389246,444.582116 687.518995,444.582116 L687.543323,444.582116 C690.381575,444.728083 693.049532,445.920149 695.060637,447.939363 C697.079851,449.950468 698.271917,452.618425 698.417884,455.456677 Z" id="icon_rss_small"></path>
        </g>
    </g>
</svg>