<?xml version="1.0" encoding="UTF-8"?>
<svg width="10px" height="14px" viewBox="0 0 10 14" version="1.1" xmlns="http://www.w3.org/2000/svg" xmlns:xlink="http://www.w3.org/1999/xlink">
    <!-- Generator: Sketch 47.1 (45422) - http://www.bohemiancoding.com/sketch -->
    <title>arrows_up_down</title>
    <desc>Created with Sketch.</desc>
    <defs></defs>
    <g id="Symbols" stroke="none" stroke-width="1" fill="none" fill-rule="evenodd">
        <g id="Footer-/-1200" transform="translate(-1206.000000, -43.000000)" fill="#9B9B9B">
            <g id="Group" transform="translate(963.000000, 24.522472)">
                <g id="arrows_up_down">
                    <path d="M252.976083,27.3941195 C252.976083,27.0748161 252.711517,26.8102504 252.392213,26.8102504 L244.218046,26.8102504 C243.898743,26.8102504 243.634177,27.0748161 243.634177,27.3941195 C243.634177,27.5492097 243.698038,27.695177 243.807514,27.8046524 L247.894597,31.891736 C248.004072,32.0012114 248.15004,32.0650721 248.30513,32.0650721 C248.46022,32.0650721 248.606187,32.0012114 248.715663,31.891736 L252.802746,27.8046524 C252.912222,27.695177 252.976083,27.5492097 252.976083,27.3941195 Z M252.976083,23.890905 C252.976083,23.7358148 252.912222,23.5898475 252.802746,23.4803721 L248.715663,19.3932886 C248.606187,19.2838131 248.46022,19.2199524 248.30513,19.2199524 C248.15004,19.2199524 248.004072,19.2838131 247.894597,19.3932886 L243.807514,23.4803721 C243.698038,23.5898475 243.634177,23.7358148 243.634177,23.890905 C243.634177,24.2102084 243.898743,24.4747741 244.218046,24.4747741 L252.392213,24.4747741 C252.711517,24.4747741 252.976083,24.2102084 252.976083,23.890905 Z"></path>
                </g>
            </g>
        </g>
    </g>
</svg>