<?xml version="1.0" encoding="UTF-8"?>
<svg width="15px" height="13px" viewBox="0 0 15 13" version="1.1" xmlns="http://www.w3.org/2000/svg" xmlns:xlink="http://www.w3.org/1999/xlink">
    <!-- Generator: Sketch 47.1 (45422) - http://www.bohemiancoding.com/sketch -->
    <title>icon_mail_small</title>
    <desc>Created with Sketch.</desc>
    <defs></defs>
    <g id="Symbols" stroke="none" stroke-width="1" fill="none" fill-rule="evenodd">
        <g id="Footer-/-1200" transform="translate(-747.000000, -445.000000)" fill="#9B9B9B">
            <path d="M760.493863,455.740503 L760.493863,449.512566 C760.323568,449.707189 760.137054,449.885593 759.934322,450.047779 C758.774693,450.939801 757.606955,451.848042 756.479763,452.78872 C755.871566,453.299606 755.117402,453.924021 754.274036,453.924021 L754.257817,453.924021 C753.414451,453.924021 752.660286,453.299606 752.052089,452.78872 C750.924898,451.848042 749.75716,450.939801 748.597531,450.047779 C748.394798,449.885593 748.208285,449.707189 748.037989,449.512566 L748.037989,455.740503 C748.037989,455.878361 748.159629,456 748.297487,456 L760.234366,456 C760.372224,456 760.493863,455.878361 760.493863,455.740503 Z M760.493863,447.217636 C760.493863,447.014904 760.542519,446.658095 760.234366,446.658095 L748.297487,446.658095 C748.159629,446.658095 748.037989,446.779734 748.037989,446.917592 C748.037989,447.842052 748.500219,448.644872 749.230055,449.220631 C750.316701,450.072107 751.403346,450.931692 752.481882,451.791277 C752.911674,452.139977 753.690166,452.886032 754.257817,452.886032 L754.274036,452.886032 C754.841686,452.886032 755.620178,452.139977 756.049971,451.791277 C757.128507,450.931692 758.215152,450.072107 759.301797,449.220631 C759.828901,448.807057 760.493863,447.906926 760.493863,447.217636 Z M761.531853,446.917592 L761.531853,455.740503 C761.531853,456.45412 760.947983,457.037989 760.234366,457.037989 L748.297487,457.037989 C747.583869,457.037989 747,456.45412 747,455.740503 L747,446.917592 C747,446.203974 747.583869,445.620105 748.297487,445.620105 L760.234366,445.620105 C760.947983,445.620105 761.531853,446.203974 761.531853,446.917592 Z" id="icon_mail_small"></path>
        </g>
    </g>
</svg>