<?xml version="1.0" encoding="UTF-8"?>
<svg width="17px" height="17px" viewBox="0 0 17 17" version="1.1" xmlns="http://www.w3.org/2000/svg" xmlns:xlink="http://www.w3.org/1999/xlink">
    <!-- Generator: Sketch 47.1 (45422) - http://www.bohemiancoding.com/sketch -->
    <title>play_icon</title>
    <desc>Created with Sketch.</desc>
    <defs></defs>
    <g id="Page-1" stroke="none" stroke-width="1" fill="none" fill-rule="evenodd">
        <g id="-TW-Content-Page-1" transform="translate(-217.000000, -471.000000)" fill="#9B9B9B">
            <path d="M229.601841,479.188194 C229.601841,479.432993 229.47412,479.656506 229.261251,479.773584 L223.471216,483.179487 C223.364781,483.243347 223.247703,483.275278 223.130625,483.275278 C223.013547,483.275278 222.896469,483.243347 222.790035,483.19013 C222.577166,483.062409 222.449445,482.838896 222.449445,482.594097 L222.449445,475.782291 C222.449445,475.537492 222.577166,475.31398 222.790035,475.186258 C223.002904,475.06918 223.26899,475.06918 223.471216,475.196902 L229.261251,478.602805 C229.47412,478.719882 229.601841,478.943395 229.601841,479.188194 Z M230.964202,479.188194 C230.964202,475.99516 228.367201,473.398159 225.174167,473.398159 C221.981133,473.398159 219.384132,475.99516 219.384132,479.188194 C219.384132,482.381228 221.981133,484.978229 225.174167,484.978229 C228.367201,484.978229 230.964202,482.381228 230.964202,479.188194 Z M233.348334,479.188194 C233.348334,483.701016 229.686988,487.362361 225.174167,487.362361 C220.661346,487.362361 217,483.701016 217,479.188194 C217,474.675373 220.661346,471.014027 225.174167,471.014027 C229.686988,471.014027 233.348334,474.675373 233.348334,479.188194 Z" id="play_icon"></path>
        </g>
    </g>
</svg>