<?xml version="1.0" encoding="UTF-8"?>
<svg width="18px" height="16px" viewBox="0 0 18 16" version="1.1" xmlns="http://www.w3.org/2000/svg" xmlns:xlink="http://www.w3.org/1999/xlink">
    <!-- Generator: Sketch 47.1 (45422) - http://www.bohemiancoding.com/sketch -->
    <title>speaker</title>
    <desc>Created with Sketch.</desc>
    <defs></defs>
    <g id="Page-1" stroke="none" stroke-width="1" fill="none" fill-rule="evenodd">
        <g id="-TW-Content-Page-1" transform="translate(-267.000000, -471.000000)" fill="#9B9B9B">
            <path d="M275.174167,473.398159 C275.174167,473.025639 274.865507,472.716979 274.492986,472.716979 C274.312048,472.716979 274.141753,472.791483 274.014031,472.919204 L270.469764,476.463472 L267.681181,476.463472 C267.30866,476.463472 267,476.772132 267,477.144652 L267,481.231736 C267,481.604257 267.30866,481.912916 267.681181,481.912916 L270.469764,481.912916 L274.014031,485.457184 C274.141753,485.584906 274.312048,485.65941 274.492986,485.65941 C274.865507,485.65941 275.174167,485.35075 275.174167,484.978229 L275.174167,473.398159 Z M279.261251,479.188194 C279.261251,480.252539 278.612,481.284953 277.611516,481.689404 C277.526369,481.731978 277.430578,481.742621 277.34543,481.742621 C276.97291,481.742621 276.66425,481.444605 276.66425,481.061441 C276.66425,480.252539 277.898889,480.476051 277.898889,479.188194 C277.898889,477.900337 276.66425,478.123849 276.66425,477.314948 C276.66425,476.931783 276.97291,476.633767 277.34543,476.633767 C277.430578,476.633767 277.526369,476.64441 277.611516,476.686984 C278.612,477.080792 279.261251,478.123849 279.261251,479.188194 Z M281.985973,479.188194 C281.985973,481.348814 280.687472,483.360425 278.686504,484.201258 C278.601357,484.233188 278.505566,484.254475 278.420418,484.254475 C278.037254,484.254475 277.728594,483.945815 277.728594,483.573294 C277.728594,483.275278 277.898889,483.073052 278.143689,482.945331 C278.431062,482.796323 278.697148,482.668601 278.952591,482.477019 C280.006292,481.710691 280.623612,480.486695 280.623612,479.188194 C280.623612,477.889694 280.006292,476.665697 278.952591,475.899369 C278.697148,475.707787 278.431062,475.580066 278.143689,475.431057 C277.898889,475.303336 277.728594,475.101111 277.728594,474.803094 C277.728594,474.430573 278.037254,474.121914 278.409775,474.121914 C278.505566,474.121914 278.601357,474.1432 278.686504,474.175131 C280.687472,475.015963 281.985973,477.027574 281.985973,479.188194 Z M284.710695,479.188194 C284.710695,482.455732 282.762945,485.41461 279.761493,486.702467 C279.676345,486.734398 279.580554,486.755685 279.484763,486.755685 C279.112242,486.755685 278.803582,486.447025 278.803582,486.074504 C278.803582,485.765844 278.963234,485.595549 279.218677,485.446541 C279.367685,485.361393 279.53798,485.308176 279.697632,485.223028 C279.995648,485.063377 280.293665,484.882438 280.570395,484.680213 C282.31592,483.392356 283.348334,481.359457 283.348334,479.188194 C283.348334,477.016931 282.31592,474.984033 280.570395,473.696176 C280.293665,473.49395 279.995648,473.313012 279.697632,473.15336 C279.53798,473.068212 279.367685,473.014995 279.218677,472.929847 C278.963234,472.780839 278.803582,472.610544 278.803582,472.301884 C278.803582,471.929363 279.112242,471.620704 279.484763,471.620704 C279.580554,471.620704 279.676345,471.64199 279.761493,471.673921 C282.762945,472.961778 284.710695,475.920656 284.710695,479.188194 Z" id="speaker"></path>
        </g>
    </g>
</svg>