<?xml version="1.0" encoding="UTF-8"?>
<svg width="13px" height="13px" viewBox="0 0 13 13" version="1.1" xmlns="http://www.w3.org/2000/svg" xmlns:xlink="http://www.w3.org/1999/xlink">
    <!-- Generator: Sketch 47.1 (45422) - http://www.bohemiancoding.com/sketch -->
    <title>Page 1</title>
    <desc>Created with Sketch.</desc>
    <defs></defs>
    <g id="Symbols" stroke="none" stroke-width="1" fill="none" fill-rule="evenodd">
        <g id="Menu-V2---1200px" transform="translate(-625.000000, -44.000000)" fill="#B8E986">
            <path d="M630.5,53 C628.57,53 627,51.43 627,49.5 C627,47.57 628.57,46 630.5,46 C632.43,46 634,47.57 634,49.5 C634,51.43 632.43,53 630.5,53 M637.711,55.297 L635.031,52.617 C635.664,51.703 636,50.609 636,49.5 C636,46.461 633.539,44 630.5,44 C627.461,44 625,46.461 625,49.5 C625,52.539 627.461,55 630.5,55 C631.609,55 632.703,54.664 633.617,54.031 L636.297,56.703 C636.477,56.891 636.734,57 637,57 C637.547,57 638,56.547 638,56 C638,55.734 637.891,55.477 637.711,55.297" id="Page-1"></path>
        </g>
    </g>
</svg>