<?xml version="1.0" encoding="UTF-8"?>
<svg width="155px" height="29px" viewBox="0 0 155 29" version="1.1" xmlns="http://www.w3.org/2000/svg" xmlns:xlink="http://www.w3.org/1999/xlink">
    <!-- Generator: Sketch 47.1 (45422) - http://www.bohemiancoding.com/sketch -->
    <title>TW Clock Logo</title>
    <desc>Created with Sketch.</desc>
    <defs></defs>
    <g id="Symbols" stroke="none" stroke-width="1" fill="none" fill-rule="evenodd">
        <g id="Menu-V2---1200px" transform="translate(-135.000000, -27.000000)" fill="#FFFFFF">
            <g id="TW-Clock-Logo" transform="translate(135.000000, 27.000000)">
                <g id="Group-5">
                    <g>
                        <path d="M19.22,1.6076875 L19.22,5.9794375 L12.5305263,5.9794375 L12.5305263,25.375 L7.01578947,25.375 L7.01578947,5.9794375 L0.326315789,5.9794375 L0.326315789,1.6076875 L19.22,1.6076875 Z M26.7252632,8.4589375 L26.7252632,25.375 L21.6673684,25.375 L21.6673684,8.4589375 L26.7252632,8.4589375 Z M27.3126316,3.8261875 C27.3126316,4.22856451 27.2310534,4.60646698 27.0678947,4.95990625 C26.904736,5.31334552 26.6817558,5.62327992 26.3989474,5.88971875 C26.1161389,6.15615758 25.7871071,6.36821796 25.4118421,6.52590625 C25.0365771,6.68359454 24.6368442,6.7624375 24.2126316,6.7624375 C23.7992962,6.7624375 23.4131597,6.68359454 23.0542105,6.52590625 C22.6952614,6.36821796 22.3771066,6.15615758 22.0997368,5.88971875 C21.822367,5.62327992 21.6048253,5.31334552 21.4471053,4.95990625 C21.2893852,4.60646698 21.2105263,4.22856451 21.2105263,3.8261875 C21.2105263,3.41293543 21.2893852,3.02687679 21.4471053,2.668 C21.6048253,2.30912321 21.822367,1.99375136 22.0997368,1.721875 C22.3771066,1.44999864 22.6952614,1.23793826 23.0542105,1.0856875 C23.4131597,0.933436739 23.7992962,0.8573125 24.2126316,0.8573125 C24.6368442,0.8573125 25.0365771,0.933436739 25.4118421,1.0856875 C25.7871071,1.23793826 26.1161389,1.44999864 26.3989474,1.721875 C26.6817558,1.99375136 26.904736,2.30912321 27.0678947,2.668 C27.2310534,3.02687679 27.3126316,3.41293543 27.3126316,3.8261875 Z M30.8042105,25.375 L30.8042105,8.4589375 L33.9368421,8.4589375 C34.2522823,8.4589375 34.5160516,8.52962429 34.7281579,8.671 C34.9402642,8.81237571 35.0898241,9.02443609 35.1768421,9.3071875 L35.4542105,10.2206875 C35.737019,9.92706103 36.0307002,9.65790747 36.3352632,9.41321875 C36.6398261,9.16853003 36.9688579,8.95646965 37.3223684,8.77703125 C37.675879,8.59759285 38.0565769,8.45621927 38.4644737,8.35290625 C38.8723705,8.24959323 39.3210502,8.1979375 39.8105263,8.1979375 C40.8329876,8.1979375 41.6786809,8.46165361 42.3476316,8.98909375 C43.0165823,9.51653389 43.525086,10.2206831 43.8731579,11.1015625 C44.1559663,10.5795599 44.5013137,10.1336893 44.9092105,9.7639375 C45.3171073,9.39418565 45.7576292,9.09512614 46.2307895,8.86675 C46.7039497,8.63837386 47.2042956,8.46981304 47.7318421,8.3610625 C48.2593886,8.25231196 48.7842079,8.1979375 49.3063158,8.1979375 C50.2743908,8.1979375 51.1336805,8.34202981 51.8842105,8.63021875 C52.6347406,8.91840769 53.2628922,9.337091 53.7686842,9.88628125 C54.2744762,10.4354715 54.6578934,11.1097148 54.9189474,11.9090312 C55.1800013,12.7083477 55.3105263,13.6136824 55.3105263,14.6250625 L55.3105263,25.375 L50.2526316,25.375 L50.2526316,14.6250625 C50.2526316,12.8741787 49.5021128,11.99875 48.0010526,11.99875 C47.315786,11.99875 46.7474584,12.224404 46.2960526,12.6757187 C45.8446469,13.1270335 45.6189474,13.7768083 45.6189474,14.6250625 L45.6189474,25.375 L40.5610526,25.375 L40.5610526,14.6250625 C40.5610526,13.6571827 40.3707037,12.977502 39.99,12.586 C39.6092963,12.194498 39.0491265,11.99875 38.3094737,11.99875 C37.8526293,11.99875 37.4202652,12.1020615 37.0123684,12.3086875 C36.6044716,12.5153135 36.2210544,12.7926233 35.8621053,13.140625 L35.8621053,25.375 L30.8042105,25.375 Z M82.3294737,1.787125 L86.0168421,1.787125 C86.3975458,1.787125 86.7157005,1.87684285 86.9713158,2.05628125 C87.2269311,2.23571965 87.3982452,2.47768598 87.4852632,2.7821875 L91.4989474,16.8925 C91.5968426,17.2405017 91.6865785,17.6184042 91.7681579,18.0262187 C91.8497373,18.4340333 91.9285961,18.8663102 92.0047368,19.3230625 C92.0917548,18.8663102 92.1869293,18.4340333 92.2902632,18.0262187 C92.393597,17.6184042 92.5050871,17.2405017 92.6247368,16.8925 L97.2584211,2.7821875 C97.345439,2.53206125 97.5167531,2.30368853 97.7723684,2.0970625 C98.0279837,1.89043647 98.3406999,1.787125 98.7105263,1.787125 L99.9994737,1.787125 C100.380177,1.787125 100.695613,1.87684285 100.945789,2.05628125 C101.195966,2.23571965 101.37,2.47768598 101.467895,2.7821875 L106.068947,16.8925 C106.308247,17.5885035 106.514911,18.3606208 106.688947,19.208875 C106.765088,18.7847479 106.843947,18.3769395 106.925526,17.9854375 C107.007106,17.5939355 107.091403,17.2296267 107.178421,16.8925 L111.192105,2.7821875 C111.268246,2.51031114 111.436841,2.27650098 111.697895,2.08075 C111.958949,1.88499902 112.274384,1.787125 112.644211,1.787125 L116.086842,1.787125 L108.761053,25.375 L104.796316,25.375 L99.6405263,9.25825 C99.5752628,9.05162397 99.5072811,8.8286887 99.4365789,8.5894375 C99.3658768,8.3501863 99.2978951,8.09462636 99.2326316,7.82275 C99.1673681,8.09462636 99.0993863,8.3501863 99.0286842,8.5894375 C98.9579821,8.8286887 98.8900003,9.05162397 98.8247368,9.25825 L93.62,25.375 L89.6552632,25.375 L82.3294737,1.787125 Z M122.727368,8.638375 L122.727368,25.375 L118.697368,25.375 L118.697368,8.638375 L122.727368,8.638375 Z M123.331053,3.7609375 C123.331053,4.10893924 123.260352,4.43518598 123.118947,4.7396875 C122.977543,5.04418902 122.789913,5.31062386 122.556053,5.539 C122.322192,5.76737614 122.047545,5.94953057 121.732105,6.08546875 C121.416665,6.22140693 121.079475,6.289375 120.720526,6.289375 C120.372454,6.289375 120.043423,6.22140693 119.733421,6.08546875 C119.42342,5.94953057 119.154212,5.76737614 118.925789,5.539 C118.697367,5.31062386 118.515176,5.04418902 118.379211,4.7396875 C118.243245,4.43518598 118.175263,4.10893924 118.175263,3.7609375 C118.175263,3.40206071 118.243245,3.06493908 118.379211,2.7495625 C118.515176,2.43418592 118.697367,2.16231364 118.925789,1.9339375 C119.154212,1.70556136 119.42342,1.52340693 119.733421,1.38746875 C120.043423,1.25153057 120.372454,1.1835625 120.720526,1.1835625 C121.079475,1.1835625 121.416665,1.25153057 121.732105,1.38746875 C122.047545,1.52340693 122.322192,1.70556136 122.556053,1.9339375 C122.789913,2.16231364 122.977543,2.43418592 123.118947,2.7495625 C123.260352,3.06493908 123.331053,3.40206071 123.331053,3.7609375 Z M132.777895,25.636 C131.331221,25.636 130.21632,25.2254729 129.433158,24.4044062 C128.649996,23.5833396 128.258421,22.4496322 128.258421,21.00325 L128.258421,11.6561875 L126.561579,11.6561875 C126.344034,11.6561875 126.156404,11.5855007 125.998684,11.444125 C125.840964,11.3027493 125.762105,11.0906889 125.762105,10.8079375 L125.762105,9.2093125 L128.454211,8.768875 L129.302632,4.201375 C129.346141,3.98387391 129.446754,3.8153131 129.604474,3.6956875 C129.762194,3.5760619 129.960701,3.51625 130.2,3.51625 L132.288421,3.51625 L132.288421,8.7851875 L136.693684,8.7851875 L136.693684,11.6561875 L132.288421,11.6561875 L132.288421,20.7259375 C132.288421,21.2479401 132.418946,21.6557485 132.68,21.949375 C132.941054,22.2430015 133.289121,22.3898125 133.724211,22.3898125 C133.974387,22.3898125 134.183771,22.3599065 134.352368,22.3000937 C134.520966,22.240281 134.667806,22.1777503 134.792895,22.1125 C134.917983,22.0472497 135.029473,21.984719 135.127368,21.9249062 C135.225264,21.8650935 135.323157,21.8351875 135.421053,21.8351875 C135.540702,21.8351875 135.638596,21.8650935 135.714737,21.9249062 C135.790878,21.984719 135.872456,22.0744369 135.959474,22.1940625 L137.166842,24.1515625 C136.579471,24.6409399 135.905092,25.0106862 135.143684,25.2608125 C134.382277,25.5109388 133.593688,25.636 132.777895,25.636 Z M139.907895,25.375 L139.907895,1.134625 L143.937895,1.134625 L143.937895,10.4490625 C144.59053,9.8291844 145.308417,9.3289394 146.091579,8.9483125 C146.874741,8.5676856 147.793854,8.377375 148.848947,8.377375 C149.762636,8.377375 150.572979,8.5323422 151.28,8.84228125 C151.987021,9.1522203 152.577103,9.58721595 153.050263,10.1472812 C153.523423,10.7073466 153.882367,11.3761524 154.127105,12.1537187 C154.371843,12.9312851 154.494211,13.7876828 154.494211,14.7229375 L154.494211,25.375 L150.464211,25.375 L150.464211,14.7229375 C150.464211,13.7006824 150.227634,12.9095341 149.754474,12.3494687 C149.281313,11.7894034 148.571584,11.509375 147.625263,11.509375 C146.929119,11.509375 146.276494,11.6670609 145.667368,11.9824375 C145.058243,12.2978141 144.481757,12.7273723 143.937895,13.271125 L143.937895,25.375 L139.907895,25.375 Z" id="Tim-With"></path>
                        <path d="M72.5146199,11.2310268 L72.5146199,18.0279018 C72.5146199,18.1695041 72.4690964,18.2858185 72.378048,18.3768485 C72.2869996,18.4678785 72.1706617,18.5133929 72.0290309,18.5133929 L67.1731412,18.5133929 C67.0315104,18.5133929 66.9151725,18.4678785 66.8241241,18.3768485 C66.7330757,18.2858185 66.6875522,18.1695041 66.6875522,18.0279018 L66.6875522,17.0569196 C66.6875522,16.9153174 66.7330757,16.799003 66.8241241,16.7079729 C66.9151725,16.6169429 67.0315104,16.5714286 67.1731412,16.5714286 L70.572264,16.5714286 L70.572264,11.2310268 C70.572264,11.0894245 70.6177875,10.9731101 70.7088359,10.8820801 C70.7998843,10.79105 70.9162221,10.7455357 71.057853,10.7455357 L72.0290309,10.7455357 C72.1706617,10.7455357 72.2869996,10.79105 72.378048,10.8820801 C72.4690964,10.9731101 72.5146199,11.0894245 72.5146199,11.2310268 Z M78.8272765,16.5714286 C78.8272765,15.0744903 78.4580303,13.6938889 77.7195267,12.4295829 C76.9810231,11.1652769 75.9795059,10.1639616 74.7149449,9.42560686 C73.450384,8.68725217 72.0695041,8.31808036 70.572264,8.31808036 C69.0750238,8.31808036 67.694144,8.68725217 66.4295831,9.42560686 C65.1650221,10.1639616 64.1635049,11.1652769 63.4250013,12.4295829 C62.6864977,13.6938889 62.3172515,15.0744903 62.3172515,16.5714286 C62.3172515,18.0683669 62.6864977,19.4489683 63.4250013,20.7132743 C64.1635049,21.9775803 65.1650221,22.9788956 66.4295831,23.7172503 C67.694144,24.455605 69.0750238,24.8247768 70.572264,24.8247768 C72.0695041,24.8247768 73.450384,24.455605 74.7149449,23.7172503 C75.9795059,22.9788956 76.9810231,21.9775803 77.7195267,20.7132743 C78.4580303,19.4489683 78.8272765,18.0683669 78.8272765,16.5714286 Z M82.2263993,16.5714286 C82.2263993,18.6853482 81.705408,20.6348788 80.6634098,22.4200788 C79.6214116,24.2052789 78.2076537,25.6187518 76.4220936,26.6605399 C74.6365336,27.702328 72.6866099,28.2232143 70.572264,28.2232143 C68.4579181,28.2232143 66.5079944,27.702328 64.7224343,26.6605399 C62.9368743,25.6187518 61.5231164,24.2052789 60.4811182,22.4200788 C59.4391199,20.6348788 58.9181287,18.6853482 58.9181287,16.5714286 C58.9181287,14.457509 59.4391199,12.5079784 60.4811182,10.7227783 C61.5231164,8.93757827 62.9368743,7.52410538 64.7224343,6.48231724 C66.5079944,5.44052911 68.4579181,4.91964286 70.572264,4.91964286 C72.6866099,4.91964286 74.6365336,5.44052911 76.4220936,6.48231724 C78.2076537,7.52410538 79.6214116,8.93757827 80.6634098,10.7227783 C81.705408,12.5079784 82.2263993,14.457509 82.2263993,16.5714286 Z" id=""></path>
                    </g>
                </g>
            </g>
        </g>
    </g>
</svg>