<?xml version="1.0" encoding="UTF-8"?>
<svg width="38px" height="38px" viewBox="0 0 38 38" version="1.1" xmlns="http://www.w3.org/2000/svg" xmlns:xlink="http://www.w3.org/1999/xlink">
    <!-- Generator: Sketch 47.1 (45422) - http://www.bohemiancoding.com/sketch -->
    <title>Combined Shape</title>
    <desc>Created with Sketch.</desc>
    <defs></defs>
    <g id="Page-1" stroke="none" stroke-width="1" fill="none" fill-rule="evenodd">
        <g id="-TW-Content-Page-1" transform="translate(-1149.000000, -457.000000)" fill="#C3C3C3">
            <path d="M1168,495 C1157.50659,495 1149,486.49341 1149,476 C1149,465.50659 1157.50659,457 1168,457 C1178.49341,457 1187,465.50659 1187,476 C1187,486.49341 1178.49341,495 1168,495 Z M1172.36707,466.899387 C1172.07969,466.856813 1171.08985,466.771666 1169.94036,466.771666 C1167.53494,466.771666 1165.88521,468.240462 1165.88521,470.933254 L1165.88521,473.253525 L1163.17113,473.253525 L1163.17113,476.403985 L1165.88521,476.403985 L1165.88521,484.482361 L1169.1421,484.482361 L1169.1421,476.403985 L1171.84554,476.403985 L1172.26063,473.253525 L1169.1421,473.253525 L1169.1421,471.241914 C1169.1421,470.337221 1169.3869,469.709257 1170.69604,469.709257 L1172.36707,469.709257 L1172.36707,466.899387 Z" id="Combined-Shape"></path>
        </g>
    </g>
</svg>