<?xml version="1.0" encoding="UTF-8"?>
<svg width="42px" height="42px" viewBox="0 0 42 42" version="1.1" xmlns="http://www.w3.org/2000/svg" xmlns:xlink="http://www.w3.org/1999/xlink">
    <!-- Generator: Sketch 47.1 (45422) - http://www.bohemiancoding.com/sketch -->
    <title>Group</title>
    <desc>Created with Sketch.</desc>
    <defs></defs>
    <g id="Symbols" stroke="none" stroke-width="1" fill="none" fill-rule="evenodd">
        <g id="Small-Thumb-Icon" transform="translate(-2.000000, 0.000000)">
            <g id="Group" transform="translate(2.000000, 0.000000)">
                <circle id="Oval-3" fill="#7DCE82" cx="21" cy="21" r="21"></circle>
                <path d="M26.8393046,20.7499925 L27.0000191,23.5714245 C27.0714477,24.8303546 24.437516,25.8571415 21.2857265,25.8571415 C18.1339371,25.8571415 15.5000054,24.8303546 15.571434,23.5714245 L15.7321485,20.7499925 L20.8571546,22.3660659 C21.0000119,22.4107088 21.1428692,22.428566 21.2857265,22.428566 C21.4285839,22.428566 21.5714412,22.4107088 21.7142985,22.3660659 L26.8393046,20.7499925 Z M31.5714531,17.857132 C31.5714531,17.9821321 31.4910959,18.0892751 31.3750243,18.133918 L21.3750124,21.2767789 C21.339298,21.2857075 21.3125123,21.2857075 21.2857265,21.2857075 C21.2589408,21.2857075 21.2321551,21.2857075 21.1964407,21.2767789 L15.3750052,19.437491 C14.866076,19.8392772 14.5089328,20.8214212 14.4375041,22.0267798 C14.7767902,22.2232086 15.0000048,22.5803519 15.0000048,22.9999952 C15.0000048,23.4017814 14.7946474,23.7499961 14.482147,23.9553535 L15.0000048,27.8214296 C15.0089334,27.9017868 14.9821476,27.982144 14.9285761,28.0446441 C14.8750046,28.1071442 14.7946474,28.1428585 14.7142901,28.1428585 L13.0000024,28.1428585 C12.9196451,28.1428585 12.8392879,28.1071442 12.7857164,28.0446441 C12.7321449,27.982144 12.7053592,27.9017868 12.7142878,27.8214296 L13.2321455,23.9553535 C12.9196451,23.7499961 12.7142878,23.4017814 12.7142878,22.9999952 C12.7142878,22.5714233 12.9553595,22.2053514 13.2946456,22.0089226 C13.3482171,20.9642785 13.6160745,19.8392772 14.1696466,19.0624905 L11.1964288,18.133918 C11.0803572,18.0892751 11,17.9821321 11,17.857132 C11,17.7321318 11.0803572,17.6249888 11.1964288,17.5803459 L21.1964407,14.437485 C21.2321551,14.4285564 21.2589408,14.4285564 21.2857265,14.4285564 C21.3125123,14.4285564 21.339298,14.4285564 21.3750124,14.437485 L31.3750243,17.5803459 C31.4910959,17.6249888 31.5714531,17.7321318 31.5714531,17.857132 Z" id="ï†" fill="#FFFFFF"></path>
            </g>
        </g>
    </g>
</svg>