<?xml version="1.0" encoding="UTF-8"?>
<svg width="69px" height="68px" viewBox="0 0 69 68" version="1.1" xmlns="http://www.w3.org/2000/svg" xmlns:xlink="http://www.w3.org/1999/xlink">
    <!-- Generator: Sketch 47.1 (45422) - http://www.bohemiancoding.com/sketch -->
    <title>Combined Shape</title>
    <desc>Created with Sketch.</desc>
    <defs></defs>
    <g id="Page-1" stroke="none" stroke-width="1" fill="none" fill-rule="evenodd">
        <g id="-TW-Content-Page-1" transform="translate(-4.000000, -524.000000)" fill="#D8D8D8">
            <path d="M4,524 L73,524 L73,592 L4,592 L4,524 Z M48.6964544,550.892839 C47.9196678,551.227661 47.0759168,551.468733 46.20538,551.562483 C47.1027025,551.026768 47.7857391,550.183017 48.107168,549.178551 C47.2768099,549.674088 46.3393088,550.035695 45.361629,550.223195 C44.5714495,549.379444 43.4464482,548.857122 42.200911,548.857122 C39.8035867,548.857122 37.875013,550.799089 37.875013,553.18302 C37.875013,553.517842 37.9151916,553.852664 37.9821559,554.174093 C34.392866,553.986593 31.1919693,552.272305 29.0625025,549.647302 C28.687502,550.29016 28.473216,551.026768 28.473216,551.83034 C28.473216,553.330342 29.2366098,554.656236 30.4017898,555.433023 C29.6919675,555.406237 29.0223238,555.205344 28.4464303,554.883915 L28.4464303,554.937487 C28.4464303,557.040168 29.9330392,558.781241 31.9151844,559.183028 C31.5535769,559.276778 31.1651835,559.330349 30.7767902,559.330349 C30.4955399,559.330349 30.2276824,559.303563 29.959825,559.263385 C30.5089328,560.977673 32.1026847,562.22321 34.0044726,562.263388 C32.5178637,563.428568 30.6562544,564.111605 28.6339305,564.111605 C28.2723229,564.111605 27.9375011,564.098212 27.5892864,564.058033 C29.5044673,565.290178 31.7812557,566 34.2321515,566 C42.1875181,566 46.5402019,559.410706 46.5402019,553.69195 C46.5402019,553.504449 46.5402019,553.316949 46.526809,553.129449 C47.37056,552.513377 48.107168,551.749983 48.6964544,550.892839 Z" id="Combined-Shape"></path>
        </g>
    </g>
</svg>