<?xml version="1.0" encoding="UTF-8"?>
<svg width="69px" height="68px" viewBox="0 0 69 68" version="1.1" xmlns="http://www.w3.org/2000/svg" xmlns:xlink="http://www.w3.org/1999/xlink">
    <!-- Generator: Sketch 47.1 (45422) - http://www.bohemiancoding.com/sketch -->
    <title>Combined Shape</title>
    <desc>Created with Sketch.</desc>
    <defs></defs>
    <g id="Page-1" stroke="none" stroke-width="1" fill="none" fill-rule="evenodd">
        <g id="-TW-Content-Page-1" transform="translate(-4.000000, -454.000000)" fill="#D8D8D8">
            <path d="M4,454 L73,454 L73,522 L4,522 L4,454 Z M42.8437653,477.589261 C42.4821577,477.53569 41.2366205,477.428547 39.7901902,477.428547 C36.7634009,477.428547 34.6875056,479.276763 34.6875056,482.66516 L34.6875056,485.584807 L31.2723229,485.584807 L31.2723229,489.549097 L34.6875056,489.549097 L34.6875056,499.714288 L38.7857248,499.714288 L38.7857248,489.549097 L42.1875145,489.549097 L42.7098366,485.584807 L38.7857248,485.584807 L38.7857248,483.053554 C38.7857248,481.915159 39.0937608,481.12498 40.7410842,481.12498 L42.8437653,481.12498 L42.8437653,477.589261 Z" id="Combined-Shape"></path>
        </g>
    </g>
</svg>