<?xml version="1.0" encoding="UTF-8"?>
<svg width="69px" height="68px" viewBox="0 0 69 68" version="1.1" xmlns="http://www.w3.org/2000/svg" xmlns:xlink="http://www.w3.org/1999/xlink">
    <!-- Generator: Sketch 47.1 (45422) - http://www.bohemiancoding.com/sketch -->
    <title>Combined Shape</title>
    <desc>Created with Sketch.</desc>
    <defs></defs>
    <g id="Page-1" stroke="none" stroke-width="1" fill="none" fill-rule="evenodd">
        <g id="-TW-Content-Page-1" transform="translate(-4.000000, -594.000000)" fill="#D8D8D8">
            <path d="M4,594 L73,594 L73,662 L4,662 L4,594 Z M45.2455587,627.65624 C45.2455587,627.013382 45.1785943,626.517846 45.0848442,626.02231 L35.816976,626.02231 L35.816976,629.397314 L41.3884112,629.397314 C41.1607324,630.830351 39.7009092,633.629461 35.816976,633.629461 C32.4687577,633.629461 29.7366116,630.857137 29.7366116,627.428561 C29.7366116,623.999986 32.4687577,621.227661 35.816976,621.227661 C37.7321568,621.227661 39.0044798,622.044626 39.7276949,622.741056 L42.3928767,620.183017 C40.6785889,618.575872 38.4687649,617.611585 35.816976,617.611585 C30.3928624,617.611585 26,622.004448 26,627.428561 C26,632.852675 30.3928624,637.245537 35.816976,637.245537 C41.4821613,637.245537 45.2455587,633.267854 45.2455587,627.65624 Z M56.8571796,626.02231 L54.0580692,626.02231 L54.0580692,623.223199 L51.2455658,623.223199 L51.2455658,626.02231 L48.4464553,626.02231 L48.4464553,628.834813 L51.2455658,628.834813 L51.2455658,631.633923 L54.0580692,631.633923 L54.0580692,628.834813 L56.8571796,628.834813 L56.8571796,626.02231 Z" id="Combined-Shape"></path>
        </g>
    </g>
</svg>