<?xml version="1.0" encoding="UTF-8"?>
<svg width="22px" height="22px" viewBox="0 0 22 22" version="1.1" xmlns="http://www.w3.org/2000/svg" xmlns:xlink="http://www.w3.org/1999/xlink">
    <!-- Generator: Sketch 47.1 (45422) - http://www.bohemiancoding.com/sketch -->
    <title></title>
    <desc>Created with Sketch.</desc>
    <defs></defs>
    <g id="Page-1" stroke="none" stroke-width="1" fill="none" fill-rule="evenodd">
        <g id="-TW-Content-Page-1" transform="translate(-77.000000, -2647.000000)" fill="#69D5FF">
            <path d="M94.9269127,2657.71429 C94.9269127,2657.47713 94.8432073,2657.25392 94.6757964,2657.0865 L88.3560365,2650.76674 C88.1886257,2650.59933 87.9654112,2650.51563 87.7282458,2650.51563 C87.4910804,2650.51563 87.267866,2650.59933 87.1004551,2650.76674 L85.8309228,2652.03628 C85.6635119,2652.20369 85.5798065,2652.4269 85.5798065,2652.66407 C85.5798065,2652.90123 85.6635119,2653.12445 85.8309228,2653.29186 L88.4676438,2655.92858 L81.4642895,2655.92858 C80.9760079,2655.92858 80.5714316,2656.33316 80.5714316,2656.82144 L80.5714316,2658.60715 C80.5714316,2659.09543 80.9760079,2659.50001 81.4642895,2659.50001 L88.4676438,2659.50001 L85.8309228,2662.13673 C85.6635119,2662.30414 85.5658556,2662.52736 85.5658556,2662.76452 C85.5658556,2663.00169 85.6635119,2663.2249 85.8309228,2663.39231 L87.1004551,2664.66185 C87.267866,2664.82926 87.4910804,2664.91296 87.7282458,2664.91296 C87.9654112,2664.91296 88.1886257,2664.82926 88.3560365,2664.66185 L94.6757964,2658.34209 C94.8432073,2658.17467 94.9269127,2657.95146 94.9269127,2657.71429 Z M98.4285898,2657.71429 C98.4285898,2663.62948 93.6294786,2668.42859 87.7142949,2668.42859 C81.7991113,2668.42859 77,2663.62948 77,2657.71429 C77,2651.79911 81.7991113,2647 87.7142949,2647 C93.6294786,2647 98.4285898,2651.79911 98.4285898,2657.71429 Z" id=""></path>
        </g>
    </g>
</svg>