<?xml version="1.0" encoding="UTF-8"?>
<svg width="38px" height="38px" viewBox="0 0 38 38" version="1.1" xmlns="http://www.w3.org/2000/svg" xmlns:xlink="http://www.w3.org/1999/xlink">
    <!-- Generator: Sketch 47.1 (45422) - http://www.bohemiancoding.com/sketch -->
    <title>Combined Shape</title>
    <desc>Created with Sketch.</desc>
    <defs></defs>
    <g id="Page-1" stroke="none" stroke-width="1" fill="none" fill-rule="evenodd">
        <g id="-TW-Content-Page-1" transform="translate(-1197.000000, -457.000000)" fill="#C3C3C3">
            <path d="M1216,495 C1205.50659,495 1197,486.49341 1197,476 C1197,465.50659 1205.50659,457 1216,457 C1226.49341,457 1235,465.50659 1235,476 C1235,486.49341 1226.49341,495 1216,495 Z M1225.12238,471.114192 C1224.50506,471.380278 1223.83453,471.57186 1223.1427,471.646364 C1223.85581,471.220627 1224.39863,470.550089 1224.65407,469.751831 C1223.99418,470.145639 1223.24914,470.433012 1222.47217,470.58202 C1221.8442,469.911483 1220.95015,469.496388 1219.96031,469.496388 C1218.05514,469.496388 1216.52248,471.039688 1216.52248,472.934222 C1216.52248,473.200308 1216.55441,473.466394 1216.60763,473.721837 C1213.75518,473.572828 1211.2114,472.210467 1209.51909,470.124352 C1209.22107,470.635237 1209.05078,471.220627 1209.05078,471.859233 C1209.05078,473.051299 1209.65746,474.105001 1210.58344,474.722321 C1210.01933,474.701034 1209.48716,474.541382 1209.02949,474.285939 L1209.02949,474.328513 C1209.02949,475.999534 1210.21091,477.383182 1211.78614,477.702486 C1211.49877,477.77699 1211.19011,477.819564 1210.88145,477.819564 C1210.65794,477.819564 1210.44507,477.798277 1210.2322,477.766346 C1210.66858,479.128707 1211.93515,480.118548 1213.44652,480.150478 C1212.2651,481.076458 1210.78566,481.619274 1209.1785,481.619274 C1208.89113,481.619274 1208.62504,481.608631 1208.34831,481.5767 C1209.87032,482.555897 1211.67971,483.12 1213.62746,483.12 C1219.94967,483.12 1223.40879,477.883424 1223.40879,473.338673 C1223.40879,473.189664 1223.40879,473.040656 1223.39815,472.891648 C1224.06868,472.402049 1224.65407,471.795373 1225.12238,471.114192 Z" id="Combined-Shape"></path>
        </g>
    </g>
</svg>