<?xml version="1.0" encoding="UTF-8"?>
<svg width="38px" height="38px" viewBox="0 0 38 38" version="1.1" xmlns="http://www.w3.org/2000/svg" xmlns:xlink="http://www.w3.org/1999/xlink">
    <!-- Generator: Sketch 47.1 (45422) - http://www.bohemiancoding.com/sketch -->
    <title>Combined Shape</title>
    <desc>Created with Sketch.</desc>
    <defs></defs>
    <g id="Page-1" stroke="none" stroke-width="1" fill="none" fill-rule="evenodd">
        <g id="-TW-Content-Page-1" transform="translate(-1247.000000, -457.000000)" fill="#C3C3C3">
            <path d="M1266,495 C1255.50659,495 1247,486.49341 1247,476 C1247,465.50659 1255.50659,457 1266,457 C1276.49341,457 1285,465.50659 1285,476 C1285,486.49341 1276.49341,495 1266,495 Z M1270.89463,475.729133 C1270.89463,475.218247 1270.84142,474.82444 1270.76691,474.430632 L1263.40165,474.430632 L1263.40165,477.112781 L1267.82932,477.112781 C1267.64838,478.25163 1266.48825,480.47611 1263.40165,480.47611 C1260.74078,480.47611 1258.56952,478.272916 1258.56952,475.548194 C1258.56952,472.823472 1260.74078,470.620278 1263.40165,470.620278 C1264.92366,470.620278 1265.93479,471.269529 1266.50953,471.822988 L1268.62758,469.790089 C1267.26522,468.512876 1265.50905,467.746548 1263.40165,467.746548 C1259.09105,467.746548 1255.6,471.237598 1255.6,475.548194 C1255.6,479.85879 1259.09105,483.349841 1263.40165,483.349841 C1267.90382,483.349841 1270.89463,480.188737 1270.89463,475.729133 Z M1280.1225,474.430632 L1277.89802,474.430632 L1277.89802,472.206152 L1275.6629,472.206152 L1275.6629,474.430632 L1273.43842,474.430632 L1273.43842,476.665756 L1275.6629,476.665756 L1275.6629,478.890236 L1277.89802,478.890236 L1277.89802,476.665756 L1280.1225,476.665756 L1280.1225,474.430632 Z" id="Combined-Shape"></path>
        </g>
    </g>
</svg>